<?xml version="1.0" encoding="UTF-8"?><svg id="Layer_1" xmlns="http://www.w3.org/2000/svg" viewBox="0 0 1368.86 361.24"><defs><style>.cls-1{fill:#84bd00;}.cls-2{fill:#002855;}.cls-3{fill:#fff;}</style></defs><path class="cls-2" d="M352.22,268.15h8.22v19.57l-.15,8.82c4.48-3.88,9.86-6.87,15.39-6.87,12.7,0,19.42,9.86,19.42,24.95,0,16.73-10.01,26.59-21.22,26.59-4.48,0-9.71-2.24-14.04-6.13h-.3l-.75,4.78h-6.72v-71.72h.15ZM372.54,334.34c8.07,0,14.04-7.32,14.04-19.42,0-10.76-3.59-18.08-12.85-18.08-4.18,0-8.52,2.39-13.15,6.72v25.7c4.33,3.74,8.67,5.08,11.95,5.08Z"/><path class="cls-2" d="M408.25,354.36c5.53,0,9.11-4.48,11.06-10.46l1.05-3.59-19.72-49.16h8.52l10.01,27.19c1.49,4.18,3.29,9.26,4.78,13.9h.45c1.34-4.48,2.84-9.56,4.18-13.9l8.82-27.19h8.07l-18.38,53.04c-3.44,9.71-8.52,17.03-18.38,17.03-2.24,0-4.18-.45-5.83-1.05l1.64-6.57c1.05.3,2.54.75,3.74.75Z"/><path class="cls-2" d="M475.93,273.83h16.44c20.47,0,31.23,11.8,31.23,32.87s-10.91,33.47-30.93,33.47h-16.73v-66.34ZM491.77,333.3c15.54,0,23.16-9.86,23.16-26.59s-7.62-26-23.16-26h-7.47v52.44h7.47v.15Z"/><path class="cls-2" d="M537.19,291.01h6.87l.75,8.82h.3c3.29-6.13,8.37-10.16,13.9-10.16,2.09,0,3.59.3,5.23,1.05l-1.64,7.32c-1.64-.45-2.69-.75-4.78-.75-4.18,0-9.11,2.99-12.4,11.36v31.53h-8.22v-49.16Z"/><path class="cls-2" d="M572.6,273.83h38.25v7.02h-29.73v22.41h25.25v7.02h-25.25v29.73h-8.52v-66.19Z"/><path class="cls-2" d="M619.96,275.62c0-3.29,2.54-5.38,5.83-5.38s5.83,2.09,5.83,5.38-2.54,5.38-5.83,5.38c-3.29,0-5.83-2.24-5.83-5.38ZM621.46,291.01h8.22v49.01h-8.22v-49.01Z"/><path class="cls-2" d="M646.26,291.01h6.87l.75,8.82h.3c3.29-6.13,8.37-10.16,13.9-10.16,2.09,0,3.59.3,5.23,1.05l-1.64,7.32c-1.64-.45-2.69-.75-4.78-.75-4.18,0-9.11,2.99-12.4,11.36v31.53h-8.22v-49.16Z"/><path class="cls-2" d="M678.98,328.96c4.18,3.44,8.52,5.83,14.49,5.83,6.42,0,9.71-3.44,9.71-7.62,0-5.08-5.83-7.32-11.21-9.26-7.02-2.54-14.64-5.83-14.64-14.19,0-7.92,6.28-13.9,16.88-13.9,6.13,0,11.5,2.54,15.24,5.53l-3.88,5.23c-3.29-2.54-6.87-4.33-11.21-4.33-6.13,0-8.96,3.29-8.96,7.02,0,4.48,5.38,6.42,10.91,8.52,7.02,2.69,14.94,5.53,14.94,14.79,0,7.92-6.42,14.64-17.93,14.64-7.02,0-13.6-2.99-18.23-6.72l3.88-5.53Z"/><path class="cls-2" d="M724.1,297.74h-7.32v-6.28l7.62-.45,1.05-13.75h7.02v13.75h13.3v6.72h-13.3v27.19c0,6.13,1.94,9.56,7.62,9.56,1.64,0,3.88-.75,5.53-1.34l1.64,6.28c-2.69.9-6.13,1.79-9.11,1.79-10.46,0-14.04-6.72-14.04-16.29v-27.19h0Z"/><path class="cls-1" d="M166.99,278.44c-6.11,6.11-14.39,9.55-23.03,9.55s-16.92-3.43-23.03-9.55L9.53,167.04c-12.71-12.72-12.71-33.33,0-46.06L120.93,9.58c12.69-12.74,33.31-12.78,46.06-.1l111.4,111.4c6.14,6.11,9.58,14.42,9.58,23.08s-3.45,16.97-9.58,23.08l-111.4,111.4Z"/><path class="cls-3" d="M189.79,171.29c-1.13-.95-1.96-2.3-2.33-3.98-11.87-54.17-68.44-75.36-69.01-75.57-4.59-1.67-5.94-7.45-3.01-12.9,2.93-5.45,9.02-8.52,13.61-6.85.66.24,16.31,6.02,33.66,19.34,10.22,7.84,18.95,16.71,25.94,26.36,8.86,12.22,14.95,25.73,18.12,40.16,1.11,5.07-2.31,11.3-7.63,13.91-3.56,1.74-7.06,1.44-9.33-.47ZM166.92,187.99c-2.9,1.42-5.76,1.17-7.61-.38-.92-.77-1.59-1.87-1.9-3.25-4.99-22.79-19.87-38.25-31.47-47.22-12.85-9.93-24.69-14.34-24.8-14.39-3.73-1.37-4.83-6.08-2.44-10.52,2.39-4.44,7.35-6.94,11.08-5.58.54.2,13.3,4.91,27.44,15.76,8.33,6.39,15.45,13.62,21.15,21.49,7.22,9.96,12.19,20.98,14.77,32.74.91,4.13-1.88,9.21-6.22,11.34ZM139.04,204.06c-2.45,1.2-4.86.99-6.42-.32-.78-.65-1.35-1.58-1.6-2.74-4.21-19.24-16.77-32.3-26.56-39.87-10.85-8.39-20.84-12.11-20.94-12.15-3.15-1.16-4.07-5.13-2.06-8.88,2.02-3.75,6.2-5.86,9.36-4.71.45.17,11.23,4.15,23.16,13.31,7.03,5.4,13.04,11.5,17.85,18.14,6.1,8.41,10.29,17.71,12.47,27.64.77,3.49-1.59,7.78-5.25,9.57Z"/><path class="cls-2" d="M372.93,87.84c-6.06,0-11.04-1.75-14.97-5.28-3.92-3.52-5.89-8.06-5.89-13.62s1.96-10.06,5.89-13.5c3.93-3.43,8.91-5.15,14.97-5.15s11.25,1.72,15.09,5.15c3.84,3.44,5.77,7.94,5.77,13.5s-1.92,10.1-5.77,13.62c-3.85,3.52-8.88,5.28-15.09,5.28ZM355.02,102.27h36.08v121.73h-36.08v-121.73Z"/><path class="cls-2" d="M414.65,63.99h58.41c8.68,0,16.81.86,24.42,2.58,7.61,1.71,14.24,4.58,19.88,8.59,5.64,4.01,10.1,9.33,13.37,15.95,3.27,6.63,4.91,14.77,4.91,24.42s-1.68,17.43-5.03,24.29c-3.35,6.87-7.89,12.52-13.62,16.94-5.73,4.42-12.36,7.69-19.88,9.82-7.53,2.13-15.55,3.19-24.06,3.19h-22.33v54.24h-36.08V63.99ZM470.86,141.05c19.63,0,29.45-8.51,29.45-25.52,0-8.34-2.5-14.24-7.49-17.67-4.99-3.43-12.31-5.15-21.96-5.15h-20.13v48.35h20.13Z"/><path class="cls-2" d="M545.9,102.27h29.45l2.45,21.35h.98c4.42-8.34,9.74-14.48,15.96-18.41,6.21-3.93,12.43-5.89,18.65-5.89,3.43,0,6.26.21,8.47.62,2.21.41,4.21,1.02,6.02,1.84l-5.89,31.17c-2.29-.65-4.41-1.14-6.38-1.48-1.96-.33-4.26-.49-6.87-.49-4.58,0-9.37,1.64-14.36,4.91-4.99,3.27-9.12,9.08-12.39,17.43v70.68h-36.08v-121.73Z"/><path class="cls-2" d="M626.45,163.14c0-9.81,1.63-18.68,4.91-26.63,3.27-7.93,7.57-14.64,12.88-20.13,5.32-5.48,11.42-9.7,18.28-12.64,6.87-2.94,13.99-4.42,21.36-4.42,8.67,0,16.24,1.48,22.7,4.42,6.46,2.94,11.86,7.04,16.2,12.27,4.33,5.24,7.57,11.41,9.7,18.53,2.12,7.12,3.19,14.85,3.19,23.19,0,3.28-.16,6.26-.49,8.96-.33,2.7-.66,4.79-.99,6.26h-72.89c1.63,9.33,5.28,16.08,10.92,20.25,5.64,4.17,12.56,6.26,20.74,6.26,8.67,0,17.43-2.7,26.26-8.1l12.03,21.85c-6.22,4.25-13.13,7.61-20.74,10.06-7.61,2.45-15.09,3.68-22.46,3.68-8.67,0-16.77-1.43-24.29-4.29-7.53-2.86-14.07-7.04-19.64-12.52-5.56-5.48-9.9-12.15-13.01-20-3.11-7.85-4.66-16.85-4.66-27ZM704.99,150.62c0-7.04-1.56-12.76-4.66-17.18-3.11-4.42-8.34-6.63-15.71-6.63-5.73,0-10.76,1.92-15.09,5.77-4.34,3.85-7.16,9.87-8.47,18.05h43.93Z"/><path class="cls-2" d="M762.03,187.44c5.56,4.26,10.88,7.45,15.95,9.57,5.07,2.13,10.22,3.19,15.46,3.19s9.33-.9,11.78-2.7c2.45-1.8,3.69-4.33,3.69-7.61,0-1.96-.7-3.72-2.09-5.28-1.39-1.56-3.28-2.98-5.64-4.3-2.37-1.31-5.03-2.49-7.98-3.56-2.94-1.06-5.98-2.25-9.08-3.56-3.77-1.47-7.53-3.19-11.29-5.15-3.77-1.96-7.2-4.37-10.31-7.23-3.11-2.86-5.64-6.22-7.61-10.06-1.97-3.85-2.94-8.3-2.94-13.38,0-5.56,1.1-10.71,3.31-15.46,2.21-4.74,5.36-8.75,9.45-12.02,4.09-3.27,9-5.85,14.72-7.73,5.72-1.88,12.11-2.83,19.15-2.83,9.33,0,17.51,1.6,24.55,4.79,7.03,3.2,13.16,6.75,18.41,10.68l-16.2,21.59c-4.41-3.27-8.75-5.81-13.01-7.61-4.26-1.8-8.51-2.7-12.76-2.7-9.17,0-13.74,3.19-13.74,9.57,0,1.96.65,3.64,1.96,5.03,1.31,1.39,3.07,2.66,5.28,3.8,2.21,1.15,4.74,2.25,7.61,3.31,2.86,1.07,5.85,2.18,8.95,3.32,3.93,1.47,7.81,3.15,11.66,5.03,3.84,1.88,7.36,4.22,10.55,6.99,3.19,2.79,5.77,6.18,7.73,10.19,1.97,4.01,2.94,8.8,2.94,14.36s-1.07,10.72-3.19,15.46c-2.13,4.75-5.32,8.88-9.57,12.4-4.26,3.52-9.49,6.3-15.71,8.34-6.22,2.05-13.42,3.07-21.59,3.07s-16.24-1.56-24.67-4.66c-8.43-3.11-15.75-7.2-21.97-12.27l16.2-22.58Z"/><path class="cls-2" d="M850.67,163.14c0-10.14,1.72-19.18,5.15-27.12,3.44-7.93,8.06-14.6,13.87-20,5.81-5.4,12.55-9.53,20.25-12.4,7.68-2.86,15.71-4.3,24.05-4.3,7.53,0,14.31,1.27,20.37,3.81,6.05,2.54,11.12,5.93,15.22,10.19l-16.45,22.34c-5.72-4.75-11.37-7.12-16.93-7.12-8.84,0-15.79,3.11-20.86,9.33-5.07,6.21-7.61,14.64-7.61,25.27s2.58,19.07,7.73,25.28c5.15,6.22,11.65,9.33,19.51,9.33,4.42,0,8.42-.9,12.03-2.7,3.6-1.8,6.87-3.84,9.82-6.13l14.48,22.82c-5.89,5.24-12.44,9.08-19.64,11.54-7.2,2.45-14.16,3.68-20.86,3.68-8.51,0-16.41-1.43-23.69-4.29-7.28-2.86-13.62-6.99-19.02-12.39-5.4-5.4-9.65-12.06-12.76-20-3.11-7.93-4.66-16.97-4.66-27.12Z"/><path class="cls-2" d="M961.36,102.27h29.45l2.45,21.35h.98c4.42-8.34,9.74-14.48,15.96-18.41,6.21-3.93,12.43-5.89,18.66-5.89,3.43,0,6.26.21,8.47.62,2.21.41,4.21,1.02,6.02,1.84l-5.9,31.17c-2.29-.65-4.41-1.14-6.38-1.48-1.97-.33-4.26-.49-6.88-.49-4.58,0-9.37,1.64-14.36,4.91-4.99,3.27-9.12,9.08-12.39,17.43v70.68h-36.08v-121.73Z"/><path class="cls-2" d="M1072.87,87.84c-6.06,0-11.04-1.75-14.97-5.28-3.92-3.52-5.88-8.06-5.88-13.62s1.96-10.06,5.88-13.5c3.93-3.43,8.91-5.15,14.97-5.15s11.25,1.72,15.09,5.15c3.84,3.44,5.77,7.94,5.77,13.5s-1.93,10.1-5.77,13.62c-3.85,3.52-8.88,5.28-15.09,5.28ZM1054.96,102.27h36.07v121.73h-36.07v-121.73Z"/><path class="cls-2" d="M1113.82,51.96h36.08v42.21l-.99,18.66c4.75-4.26,9.86-7.57,15.34-9.94,5.48-2.37,11.08-3.56,16.81-3.56,7.36,0,13.99,1.48,19.88,4.42,5.89,2.94,10.92,7.08,15.09,12.4,4.17,5.32,7.36,11.78,9.57,19.39,2.21,7.61,3.32,16.07,3.32,25.4,0,10.47-1.43,19.8-4.3,27.98-2.86,8.18-6.71,15.09-11.54,20.74-4.83,5.64-10.31,9.94-16.44,12.88-6.14,2.94-12.48,4.41-19.02,4.41-5.4,0-10.84-1.31-16.32-3.92-5.48-2.62-10.59-6.54-15.34-11.78h-.98l-2.94,12.76h-28.23V51.96ZM1149.91,189.65c3.27,2.94,6.54,4.99,9.81,6.13,3.28,1.15,6.47,1.72,9.57,1.72,6.21,0,11.54-2.82,15.95-8.47,4.42-5.65,6.63-14.77,6.63-27.37,0-21.93-7.04-32.89-21.11-32.89-7.2,0-14.16,3.68-20.86,11.04v49.83Z"/><path class="cls-2" d="M1239.78,163.14c0-9.81,1.63-18.68,4.91-26.63,3.27-7.93,7.57-14.64,12.88-20.13,5.32-5.48,11.42-9.7,18.28-12.64,6.87-2.94,13.99-4.42,21.36-4.42,8.67,0,16.24,1.48,22.7,4.42,6.46,2.94,11.86,7.04,16.2,12.27,4.33,5.24,7.57,11.41,9.7,18.53,2.12,7.12,3.19,14.85,3.19,23.19,0,3.28-.16,6.26-.49,8.96-.33,2.7-.66,4.79-.99,6.26h-72.89c1.63,9.33,5.28,16.08,10.92,20.25,5.64,4.17,12.56,6.26,20.74,6.26,8.67,0,17.43-2.7,26.26-8.1l12.03,21.85c-6.22,4.25-13.13,7.61-20.74,10.06-7.61,2.45-15.09,3.68-22.46,3.68-8.67,0-16.77-1.43-24.29-4.29-7.53-2.86-14.07-7.04-19.64-12.52-5.56-5.48-9.9-12.15-13.01-20-3.11-7.85-4.66-16.85-4.66-27ZM1318.32,150.62c0-7.04-1.56-12.76-4.66-17.18-3.11-4.42-8.34-6.63-15.71-6.63-5.73,0-10.76,1.92-15.09,5.77-4.34,3.85-7.16,9.87-8.47,18.05h43.93Z"/><path class="cls-2" d="M1368.86,111.2c0,5.04-4.1,9.16-9.15,9.16s-9.15-4.12-9.15-9.16,4.09-9.15,9.15-9.15,9.15,4.12,9.15,9.15ZM1367.38,111.2c0-4.42-3.29-7.92-7.67-7.92s-7.68,3.5-7.68,7.92,3.29,7.92,7.68,7.92,7.67-3.5,7.67-7.92ZM1357.78,116.65h-1.48v-10.88h4.17c2.45,0,3.53,1.06,3.53,3.01s-1.25,2.76-2.52,3.03l3.04,4.84h-1.68l-2.96-4.84h-2.1v4.84ZM1359.49,110.59c1.43,0,3.03.07,3.03-1.83,0-1.53-1.23-1.75-2.37-1.75h-2.36v3.58h1.7Z"/></svg>